<?xml version="1.0" encoding="utf-8"?>
<!-- Generator: Adobe Illustrator 25.0.0, SVG Export Plug-In . SVG Version: 6.00 Build 0)  -->
<svg version="1.1" id="Layer_1" xmlns="http://www.w3.org/2000/svg" xmlns:xlink="http://www.w3.org/1999/xlink" x="0px" y="0px"
	 viewBox="0 0 225 224" style="enable-background:new 0 0 225 224;" xml:space="preserve">
<style type="text/css">
	.st0{opacity:3.000000e-02;}
	.st1{fill:#FFFFFF;stroke:#000000;stroke-width:0.75;stroke-linejoin:round;stroke-miterlimit:10;}
	.st2{fill:#FFE91F;stroke:#FFE91F;stroke-width:0.75;stroke-linejoin:round;stroke-miterlimit:10;}
	.st3{fill:#FFE91F;}
	.st4{fill:#268DCF;stroke:#000000;stroke-width:0.75;stroke-linejoin:round;stroke-miterlimit:10;}
	.st5{fill:#DF2729;stroke:#000000;stroke-width:0.75;stroke-linejoin:round;stroke-miterlimit:10;}
	.st6{fill:#FFFFFF;stroke:#000000;stroke-width:0.75;stroke-miterlimit:10;}
	.st7{fill:#F6ED26;stroke:#000000;stroke-width:0.25;stroke-miterlimit:10;}
	.st8{fill:#FFFFFF;stroke:#000000;stroke-width:0.25;stroke-miterlimit:10;}
	.st9{opacity:0.81;}
	.st10{fill:none;stroke:#000000;stroke-width:0.25;stroke-miterlimit:10;}
	.st11{opacity:0.83;}
	.st12{fill:#FFDC64;}
	.st13{fill:#FFC850;}
	.st14{fill-rule:evenodd;clip-rule:evenodd;}
	.st15{fill:none;stroke:#000000;stroke-miterlimit:10;}
	.st16{fill:#FFE91F;stroke:#000000;stroke-width:0.25;stroke-miterlimit:10;}
</style>
<g class="st0">
	<g>
		<g>
			<path class="st1" d="M165.6,63.5l-0.1,0.1c-6.1,3.3-9.8,9.9-9.8,16.8v10h-83V80.2c0-6.8-3.5-13.2-9.5-16.5c0,0-0.1,0-0.1-0.1
				c3.5-0.7,6.7-1.9,9.6-3.4c7-3.7,12-9.5,13.4-16.2c3.3,2.8,7.3,4.4,11.7,4.4c7,0,13.2-4.2,16.6-10.5c3.5,6.3,9.6,10.5,16.6,10.5
				c4.4,0,8.4-1.7,11.7-4.4c1.3,6.6,6.1,12.2,12.9,15.9C158.6,61.5,162,62.8,165.6,63.5z"/>
			<polygon class="st2" points="117.2,55.7 118.9,60.9 114.4,57.7 110,60.9 111.7,55.7 107.2,52.4 112.7,52.4 114.4,47.2 
				116.1,52.4 121.6,52.4 			"/>
			<polygon class="st3" points="147.6,76.7 149.3,82 144.9,78.7 140.4,82 142.1,76.7 137.7,73.5 143.2,73.5 144.9,68.3 146.6,73.5 
				152.1,73.5 			"/>
			<polygon class="st2" points="86.6,77.4 88.3,82.6 83.9,79.3 79.4,82.6 81.1,77.4 76.7,74.1 82.2,74.1 83.9,68.9 85.6,74.1 
				91.1,74.1 			"/>
			<path class="st4" d="M114.4,90.4l-0.2,67.5c-0.1-0.1-0.1-0.2-0.2-0.3c-2.2-3.2-6.6-5.7-11.9-6.8c-1.4-0.3-2.8-0.5-4.2-0.5
				c-0.4,0-0.7,0-1.1,0c-1.8,0-3.5-0.1-5.2-0.5c-10.9-2.6-18.7-9.5-18.7-17.6V90.4H114.4z"/>
			<path class="st5" d="M155.7,90.4v41.4c0,8.1-7.8,15-18.7,17.6c-1.7,0.4-3.5,0.5-5.2,0.5c-0.4,0-0.7,0-1.1,0
				c-1.5,0.1-2.9,0.2-4.2,0.5c-5.4,1.1-9.9,3.7-12,7c-0.1,0.1-0.2,0.2-0.2,0.4l0.2-67.5L155.7,90.4L155.7,90.4z"/>
		</g>
		<ellipse class="st6" cx="114.1" cy="89" rx="19.7" ry="24.8"/>
		<path class="st3" d="M132.1,88.7l-0.5,0.7l-1.6,2.4h-3.9l-3.1-0.9c-0.1,0.3-0.2,0.6-0.3,0.9l0,0c-0.2,0.4-0.3,0.8-0.6,1.2l4,2.4
			l2.4,2.3l0.4,0.4l-0.3,4.1l-4.3,0.7l-2.4-2.3l-0.5-0.5l-2.4-4c-0.3,0.2-0.7,0.4-1.1,0.6c-0.1,0-0.2,0.1-0.2,0.1
			c-0.5,0.2-0.9,0.3-1.4,0.5l1.4,6.5v3.9l-3.2,1.9l-0.2,0.1l-3.3-2v-3.9l1.4-6.4c-0.5-0.1-1-0.2-1.4-0.4c-0.1,0-0.2-0.1-0.3-0.1
			c-0.4-0.2-0.8-0.4-1.2-0.6l-2.7,4.4l-2.8,2.8l-4.2-0.7l-0.5-4.1l2.8-2.8l4.5-2.7c-0.2-0.4-0.4-0.8-0.6-1.2l-0.1-0.2
			c-0.1-0.3-0.2-0.7-0.3-1l-3.5,1h-3.9l-1.5-2.4l-0.6-1l2.1-3.2h3.9l3.6,1c0.1-0.4,0.2-0.7,0.4-1l0.1-0.1c0.2-0.4,0.4-0.8,0.6-1.1
			l-4.1-2.5l-2.5-2.3l-0.4-0.4l0.4-4.2l4.2-0.7l2.4,2.3l0.5,0.5l2.6,4.3c0.4-0.2,0.7-0.4,1.1-0.5h0.1c0.5-0.2,0.9-0.3,1.4-0.4
			l-1.5-6.9v-3.9l3.3-2.6l3.3,2.6v3.9l-1.5,6.9c0.5,0.1,1,0.3,1.4,0.4h0.1c0.4,0.2,0.7,0.3,1,0.5l2.5-4.2l2.8-2.8l4.3,0.6l0.5,4.2
			l-2.8,2.8l-4.2,2.5c0.2,0.3,0.4,0.7,0.6,1.1l0,0c0.1,0.3,0.2,0.6,0.4,0.9l3.3-0.9h3.9L132.1,88.7z"/>
		<g>
			<path class="st7" d="M123.2,129h-1.4c-0.2-0.7-0.4-1.4-0.8-2l1.4-1.3c0.4-0.4,0.6-0.9,0.6-1.4s-0.2-1-0.6-1.4
				c-0.8-0.8-2-0.8-2.8,0l-1.3,1.3c-0.7-0.4-1.4-0.7-2.2-0.9v-1.8c0-0.6-0.2-1-0.6-1.4c-0.3-0.3-0.6-0.5-1-0.6c-0.1,0-0.2,0-0.4,0
				c-1.1,0-2,0.9-2,2v1.9c-0.7,0.2-1.4,0.5-2.1,0.9l-1.4-1.4c-0.8-0.8-2-0.8-2.8,0c-0.4,0.4-0.6,0.9-0.6,1.4s0.2,1,0.6,1.4l1.5,1.5
				c-0.3,0.6-0.5,1.2-0.7,1.8h-2c-1.1,0-2.1,0.8-2.1,1.9c0,1.1,1,2,2.1,2l2.2,0.1c0.2,0.6,0.5,1.2,0.8,1.8l-1.8,1.8
				c-0.8,0.8-0.8,2,0,2.8s2,0.8,2.8,0l1.9-1.9c0.5,0.3,1,0.5,1.6,0.7v2.6c0,1.1,0.9,2,2,2c0.1,0,0.2,0,0.3,0c1-0.1,1.7-1,1.7-2v-2.5
				c0.6-0.2,1.2-0.4,1.7-0.6l1.8,1.8c0.8,0.8,2,0.8,2.8,0s0.8-2.1,0-2.8l-1.6-1.6c0.4-0.6,0.7-1.2,0.9-1.9h1.6
				c0.6,0,1.1-0.2,1.4-0.6c0.4-0.4,0.6-0.9,0.6-1.4C125.2,129.9,124.3,129,123.2,129z M118.5,132.7c-0.1,0.1-0.1,0.2-0.2,0.3
				c-0.5,0.9-1.3,1.6-2.2,2c-0.2,0.1-0.5,0.2-0.7,0.3c-0.2,0-0.3,0.1-0.5,0.1s-0.3,0-0.5,0.1c-0.1,0-0.2,0-0.2,0
				c-0.4,0-0.9-0.1-1.3-0.2c-0.2-0.1-0.5-0.2-0.7-0.3c-0.9-0.4-1.6-1.1-2.1-1.9c-0.1-0.1-0.2-0.3-0.2-0.4c-0.3-0.6-0.5-1.3-0.5-2
				c0-0.4,0.1-0.8,0.2-1.2c0-0.1,0.1-0.2,0.1-0.3c0.4-1.2,1.3-2.2,2.5-2.8c0,0,0,0,0.1,0c0.6-0.3,1.3-0.5,2.1-0.5c0.1,0,0.2,0,0.3,0
				c0.1,0,0.3,0,0.4,0s0.3,0,0.4,0.1c0.3,0.1,0.6,0.2,0.8,0.3h0.1c1.2,0.5,2.1,1.6,2.5,2.8c0,0.1,0.1,0.2,0.1,0.2
				c0.1,0.4,0.2,0.9,0.2,1.3C119,131.4,118.8,132.1,118.5,132.7z"/>
			<path class="st8" d="M119,130.6c0,0.8-0.2,1.5-0.5,2.1c-0.1,0.1-0.1,0.2-0.2,0.3c-0.5,0.9-1.3,1.6-2.2,2
				c-0.2,0.1-0.5,0.2-0.7,0.3c-0.4,0.1-0.8,0.2-1.2,0.2c-0.5,0-0.9-0.1-1.3-0.2c-0.3-0.1-0.5-0.2-0.7-0.3c-0.9-0.4-1.6-1.1-2.1-1.9
				c-0.1-0.1-0.2-0.3-0.2-0.4c-0.3-0.6-0.5-1.3-0.5-2c0-0.4,0.1-0.8,0.2-1.2c0-0.1,0.1-0.2,0.1-0.3c0.4-1.2,1.3-2.2,2.5-2.8l0,0
				c0.6-0.3,1.3-0.5,2.1-0.5c0.7,0,1.3,0.1,1.9,0.4h0.1c1.2,0.5,2.1,1.6,2.5,2.8c0,0.1,0.1,0.2,0.1,0.2
				C118.9,129.7,119,130.2,119,130.6z"/>
		</g>
		<g class="st9">
			<path class="st10" d="M147.2,97.1h-0.7v-1.4h-1.2v-1.8c0,0,0-0.1-0.1-0.1h-2.1c0,0-0.1,0-0.1,0.1v1.8h-1v1.4h-0.8l-2,43.4h0.7
				l4.2-4.6l4.2,4.6h0.7L147.2,97.1z M147.3,122.8l-1.7-2.9l1.5-2.8L147.3,122.8z M142,115L142,115l2.2-3.5l2,3.4l-2,3.4L142,115z
				 M144.2,103.2l1.4,2.4l-1.4,2.4l-1.5-2.3L144.2,103.2z M143.4,98.3h1.8l-0.9,0.8L143.4,98.3z M146.6,107.6L146.6,107.6l0.2,4.5
				l-1.2-2.3L146.6,107.6z M146.1,100l0.1,3l0,0l-0.9-1.5L146.1,100z M143.1,96.3h2.2V97h-2.2V96.3z M142.3,100l0.7,1.5l-0.9,1.5
				l0,0L142.3,100z M141.9,107.6l1,2.3l-1.2,2.4L141.9,107.6z M141.4,117.1l1.4,2.8l-1.7,2.8l0,0L141.4,117.1z M140.6,136.6l0.3-7.6
				l2.5,3.9L140.6,136.6z M141.4,126l2.9-4.7l2.7,4.7l-2.7,4.6L141.4,126z M145.1,132.9l2.5-4l0.3,7.7L145.1,132.9z"/>
		</g>
	</g>
	<g>
		<g id="iconos_24_" class="st11">
			<path d="M85.6,101.7l-1.7,2l-7.2,8.5c-0.2,0.2-0.3,0.6-0.1,0.7l0.5,0.4c0.1,0.1,0.4,0,0.5-0.2l7.3-8.7l1.5-1.9L85.6,101.7z"/>
			<path d="M85.6,97.7l-1.3,1.7l1.1,0.9l0.3-0.4l0.9,0.7l-1,1.1l0.9,0.7l0.6-0.8c0.3-0.4,1.4,0,1.4,0.4c0.1,0.7-0.1,0.6,0.1,0.9
				c0.2,0,0.3-0.1,0.4-0.3c0.3-0.4,0.4-0.8,0.3-1.3c0-0.4-0.2-0.8-0.7-1.4c-1-1.1-1.3-1-1.3-1L87,99.3l-0.7-0.6l0.3-0.4L85.6,97.7z"
				/>
		</g>
		<g id="iconos_1_" class="st11">
			<path d="M78,102.6l1.9,1.8l8.2,7.8c0.2,0.2,0.5,0.3,0.7,0.1l0.4-0.4c0.1-0.1,0.1-0.4-0.1-0.6l-8.4-8l-1.9-1.7L78,102.6z"/>
		</g>
		<g>
			<path class="st12" d="M86.1,106.9v0.8h-6.7v-0.8c0-0.2,0-0.3,0-0.5c0,0,0,0,0-0.1s0-0.2,0.1-0.3c0-0.1,0-0.1,0-0.2
				c0-0.2,0.1-0.3,0.2-0.5c0-0.1,0.1-0.2,0.2-0.3c0.1-0.1,0.2-0.3,0.3-0.4c0.1-0.1,0.1-0.2,0.2-0.2c0.1-0.1,0.1-0.1,0.2-0.2
				c0,0,0,0,0.1-0.1s0.3-0.2,0.4-0.3c0.1,0,0.1-0.1,0.2-0.1c0,0,0,0,0.1,0h0.1c0.2-0.1,0.4-0.2,0.7-0.2h0.1v-0.1
				c0-0.1,0.1-0.3,0.3-0.3h0.8c0.1,0,0.3,0.1,0.3,0.3v0.1h0.1c0.1,0,0.3,0.1,0.4,0.1s0.2,0.1,0.3,0.1
				C85.3,104.4,86.1,105.6,86.1,106.9z"/>
			<path class="st13" d="M86.4,107.8v0.2c0,0.1,0,0.1-0.1,0.1c-0.9,0.3-2.2,0.5-3.5,0.5s-2.6-0.2-3.5-0.5c-0.1,0-0.1-0.1-0.1-0.1
				v-0.2l0,0c0-0.1,0.1-0.1,0.1-0.1L86.4,107.8C86.3,107.7,86.3,107.7,86.4,107.8L86.4,107.8z"/>
			<g>
				<path class="st12" d="M86.3,107.8c-0.9,0.2-2.2,0.3-3.5,0.3c-1.4,0-2.6-0.1-3.5-0.3c0,0-0.1,0-0.1-0.1l0,0v0.2
					c0,0.1,0,0.1,0.1,0.1c0.9,0.3,2.2,0.5,3.5,0.5c1.4,0,2.6-0.2,3.5-0.5C86.4,108,86.4,107.9,86.3,107.8L86.3,107.8
					C86.4,107.8,86.4,107.8,86.3,107.8L86.3,107.8z"/>
			</g>
		</g>
		<path d="M90.1,111.6l-1.5,1.7c-0.2,0.3-0.7,0.1-0.7-0.3l-0.1-1.6c0-0.2,0.2-0.4,0.4-0.4l1.6-0.1C90.2,110.9,90.4,111.3,90.1,111.6
			z"/>
		<g>
			<path class="st14" d="M78.1,102.6l1.9-2.2l-1.8-1.6c-0.6-0.5-2.6-0.9-3.5,0.2c-0.9,1-0.3,3,0.3,3.5l1.8,1.6L78.1,102.6z"/>
		</g>
	</g>
	<ellipse class="st15" cx="112" cy="111.7" rx="81.2" ry="80.3"/>
	<g>
		<g>
			<path d="M69,166l-0.5,0.6l-0.8-0.4l1.7-1.4l0.7,0.6l-1.4,1.5c-0.9-0.2-1.8-0.6-2.6-1.3c-2-1.8-2.4-4.4-0.3-6.7
				c2-2.3,4.8-2.3,6.8-0.6c0.7,0.6,1.2,1.3,1.6,2.2l-1.3,1.6l-0.7-0.6l1.1-1.9l0.5,0.7l-0.5,0.6c-0.1-1-0.4-1.6-0.9-2
				c-1.2-1.1-3.2-1-5,1.2c-1.8,2.1-1.7,4-0.5,5C67.3,165.7,68.1,166,69,166z"/>
			<path d="M72.1,168.8l1.4,1.3l-0.4,0.5l-3.4-2.4l0.4-0.5l1.7,0.9L72.1,168.8z M73.6,164.9c0.8-1.2,1.7-2.4,2.5-3.6l1.5,1.1
				c-0.8,1.1-1.7,2.3-2.5,3.5l-0.3,0.5c-0.8,1.2-1.7,2.4-2.5,3.6l-1.5-1.1c0.8-1.1,1.7-2.3,2.5-3.5L73.6,164.9z M74.7,161.2l0.4-0.5
				l3.4,2.4l-0.4,0.5l-1.7-0.9l-0.3-0.2L74.7,161.2z"/>
			<path d="M78.3,172.8l1.6,1.2l-0.3,0.6l-3.8-2.2l0.3-0.6l1.8,0.8L78.3,172.8z M79.3,168.7c0.7-1.3,1.4-2.5,2.1-3.8l1.6,0.9
				c-0.7,1.2-1.4,2.5-2.2,3.8l-0.3,0.5c-0.7,1.3-1.4,2.5-2.1,3.8l-1.6-0.9c0.7-1.2,1.4-2.5,2.2-3.8L79.3,168.7z M78.9,164.3L80,164
				l-1.6,2l-0.8-0.5l1.3-2.2l6.7,3.8l-1.2,2.3l-0.8-0.5l0.9-2.4l0.3,1L78.9,164.3z"/>
			<path d="M86.6,176.7l1.8,0.9l-0.2,0.6l-4.1-1.7l0.2-0.6l1.9,0.5L86.6,176.7z M86.8,173.2l1.6,0.7c-0.7,1.7-1.1,2.8-1.6,4
				l-1.7-0.7C85.7,176,86.1,174.9,86.8,173.2z M85.4,167.9l0.2-0.6l3.8,1.6l-0.2,0.6l-1.7-0.5l-0.4-0.2L85.4,167.9z M86.6,174.4
				l-0.4-6.9l1.9,0.8l0.2,5.7l-0.4-0.1l4.2-3.9l0.8,0.3l-5.1,4.6L86.6,174.4z M91.6,170.6l-1.2-0.7l0.2-0.6l2.8,1.1l-0.2,0.6
				l-1.3-0.3L91.6,170.6z"/>
			<path d="M103.8,177.7c-0.6,3.1-3,4.3-5.2,3.9s-3.8-2.5-3.2-5.7c0.6-3.1,3-4.3,5.2-3.9C102.7,172.5,104.4,174.5,103.8,177.7z
				 M98.8,180.8c1.6,0.3,2.7-1.4,3.1-3.6c0.5-2.2,0.2-4.2-1.4-4.5s-2.7,1.4-3.1,3.6C96.9,178.5,97.2,180.5,98.8,180.8z"/>
			<path d="M107.1,181.7l1.9,0.4l-0.1,0.7l-4.2-0.3l0.1-0.7l1.9-0.1L107.1,181.7z M105.4,173.8l0.1-0.7l2,0.2l-0.1,0.9h-0.2
				L105.4,173.8z M106.2,177.6c0.1-1.4,0.2-2.9,0.3-4.3l1.8,0.1c-0.2,1.4-0.3,2.9-0.4,4.3v0.5c-0.1,1.5-0.2,3-0.3,4.4l-1.8-0.1
				c0.2-1.4,0.3-2.9,0.4-4.3V177.6z M110.2,178.4l-3.1-0.2l0.1-0.7l3.1,0.2L110.2,178.4z M111,173.6l0.7,0.8l-4.4-0.3l0.1-0.7
				l4.8,0.4l-0.1,2.5l-1-0.1L111,173.6z M109.8,177.9l0.3-1.4l0.7,0.1l-0.3,3.3l-0.7-0.1l-0.1-1.5L109.8,177.9z"/>
			<path d="M116.2,174.4l0.7-0.8l-0.2,2.6l-1,0.1l-0.1-2.5l7.7-0.7l0.3,2.5l-0.9,0.1l-0.6-2.5l0.9,0.7L116.2,174.4z M120.4,181.8h2
				l0.1,0.7l-4.4,0.4l-0.1-0.7l1.9-0.4H120.4z M119,177.8c-0.1-1.4-0.2-2.9-0.4-4.3l1.8-0.2c0.1,1.4,0.2,2.9,0.3,4.3l0.1,0.6
				c0.1,1.4,0.2,2.9,0.4,4.3l-1.8,0.2c-0.1-1.4-0.2-2.9-0.3-4.3L119,177.8z"/>
			<path d="M133.1,175.7c0.7,3.1-1,5.2-3.1,5.7c-2.1,0.5-4.5-0.7-5.2-3.8s1-5.2,3.1-5.7S132.4,172.5,133.1,175.7z M129.9,180.6
				c1.6-0.4,1.8-2.4,1.4-4.5c-0.5-2.2-1.5-3.9-3.2-3.5s-1.8,2.4-1.4,4.5C127.2,179.3,128.3,181,129.9,180.6z"/>
			<path d="M133,171.5l-0.2-0.6l3.9-1.4l0.2,0.6l-1.7,0.8l-0.4,0.1L133,171.5z M133.8,170.5l1.7-0.6c0.5,1.4,1,2.7,1.5,4.1l0.3,0.8
				c0.4,1.1,0.9,2.5,1.4,3.8l-1.7,0.6c-0.5-1.4-1-2.7-1.4-4l-0.3-0.7C134.8,173.2,134.3,171.9,133.8,170.5z M137.6,178.1l0.3,0.8
				l-1.9,0.7l-0.2-0.6L137.6,178.1L137.6,178.1z M141.7,174.7l0.8,2.6l-4.6,1.7l-0.3-0.7l4.1-1.5l-0.6,1l-0.4-2.7L141.7,174.7z"/>
			<path d="M140.2,168.8l-0.3-0.6l1.8-0.9l0.4,0.8l-0.2,0.1L140.2,168.8z M142.9,171.6c-0.7-1.3-1.3-2.6-2-3.9l1.6-0.8
				c0.6,1.3,1.3,2.6,1.9,3.9l0.2,0.4c0.7,1.4,1.4,2.7,2.1,4L145,176c-0.6-1.3-1.3-2.6-1.9-3.9L142.9,171.6z M144.9,165.7l1.1,0.3
				l-3.9,2l-0.3-0.7l4.3-2.2l1.2,2.1l-0.9,0.4L144.9,165.7z M146.7,170.3l-2.7,1.4l-0.3-0.7l2.7-1.4L146.7,170.3z M145.6,174.8
				l0.4,0.8l-1.8,0.9l-0.3-0.6l1.6-1L145.6,174.8z M146.1,170l-0.5-1.4l0.6-0.3l1.4,2.8l-0.6,0.3l-0.9-1.2V170z M149.5,171.1l1,2.2
				l-4.5,2.3l-0.3-0.7l4.1-2.1l-0.4,1l-0.7-2.4L149.5,171.1z"/>
			<path d="M147.2,165.3l-0.4-0.5l1.7-1.2l0.5,0.7l-0.1,0.1L147.2,165.3z M150.3,167.7c-0.8-1.2-1.6-2.4-2.5-3.6l1.5-1
				c0.8,1.2,1.6,2.4,2.4,3.6l0.3,0.4c0.9,1.3,1.7,2.5,2.6,3.7l-1.5,1c-0.8-1.2-1.6-2.4-2.5-3.7L150.3,167.7z M153.4,170.6l1.4-1
				c1.5-1,1.6-2.8,0.2-4.9c-1.4-2.1-3.1-2.6-4.6-1.6l-1.5,1l-0.4-0.6l1.6-1.1c2.3-1.6,4.7-1.2,6.4,1.3s1,4.9-1.3,6.5l-1.4,1
				L153.4,170.6z M153.3,170.5l0.5,0.7l-1.7,1.2l-0.4-0.5l1.4-1.2L153.3,170.5z"/>
			<path d="M163.8,157.2c2.1,2.3,1.8,5,0.2,6.5s-4.3,1.6-6.4-0.7c-2.1-2.3-1.8-5-0.2-6.5C159,155,161.7,154.8,163.8,157.2z
				 M163.5,163.1c1.2-1.1,0.4-3-1.1-4.6s-3.3-2.6-4.5-1.5s-0.4,3,1.1,4.6C160.5,163.3,162.3,164.2,163.5,163.1z"/>
		</g>
	</g>
	<ellipse class="st15" cx="112" cy="111.7" rx="107.6" ry="106.3"/>
	<polygon points="205.6,107 207.5,112.7 213.5,112.7 208.6,116.3 210.5,122 205.6,118.5 200.8,122 202.6,116.3 197.8,112.7 
		203.8,112.7 	"/>
	<polygon points="17.1,107 19,112.7 25,112.7 20.1,116.3 22,122 17.1,118.5 12.3,122 14.1,116.3 9.3,112.7 15.3,112.7 	"/>
	<g>
		<g>
			<path d="M18,141c1-0.3,1.3-1,1.4-2.5l0.1-0.8c0.2-2.1,0.8-3.7,2.6-4.2c2-0.6,3.8,0.6,4.5,3c0.4,1.2,0.4,2.3,0.1,3.3l-2.4,0.6
				l-0.4-1.3l2.4-1.3l-0.1,1.4l-0.9,0.3c0.5-1.1,0.6-1.9,0.3-2.8c-0.4-1.2-1.3-1.8-2.4-1.5c-1,0.3-1.3,1.1-1.4,2.4l-0.1,0.8
				c-0.2,2.5-0.9,3.7-2.6,4.3c-2,0.7-3.9-0.5-4.7-3.2c-0.4-1.3-0.5-2.7-0.2-3.8l2.5-0.7l0.4,1.3l-2.6,1.3l0.1-1.4l0.8-0.3
				c-0.3,1.3-0.4,2-0.1,3.2C15.8,140.7,16.8,141.4,18,141z"/>
			<path d="M17.4,145l1,1.6l0.1,0.3l0.5,1.8l-0.8,0.3l-1.7-3.6L17.4,145z M29.7,145.2l0.6,1.3l-9.2,8.7l-1-2.2l7.9-7.3l0.6,0.3
				l-11.2,1.2l-0.4-0.9L29.7,145.2z M20,151l1.1,1.8l0.3,0.7l0.7,2.2l-0.8,0.3l-2.2-4.7L20,151z M22.1,146.4l2,4.4l-0.7,0.7l-2.3-5
				L22.1,146.4z"/>
			<path d="M23,157.2l1.2,1.5l0.2,0.4l0.9,2l-0.7,0.4l-2.4-3.8L23,157.2z M33.2,152.6l-0.2,1.3l-9.4,5.9l-0.5-0.9L33.2,152.6z
				 M32.5,152.5l0.2,1.2l-0.9-1.9l0.7-0.5l1.8,2.9l-4.4,11l-2.1,1.3l-0.6-0.9L32.5,152.5z M37.4,159.3l0.5,0.9l-10.2,6.4l0.3-1.4
				L37.4,159.3z M36.4,157.6l2.4,3.8l-0.7,0.4l-1.2-1.4l-0.2-0.4l-1-2.1L36.4,157.6z"/>
			<path d="M37.1,177c-1.3-0.5-2.4-1.2-3.4-2.4c-2.3-2.8-2-6.3,0.9-8.7c2.8-2.4,6.4-2.1,8.8,0.8c0.9,1,1.4,2.1,1.6,3.3l-2,1.8
				l-0.8-1l1.8-2.2l0.5,1.1l-0.8,0.6c0-1.2-0.3-2.1-0.9-2.8c-1.4-1.7-3.9-1.9-6.6,0.3c-2.7,2.2-3,4.7-1.5,6.5c0.6,0.7,1.1,1,2.1,1.4
				l-1.5-0.2l0.9-0.8c1.1-0.9,2.1-1.8,3.2-2.7l1.5,1.8c-1.1,0.9-2.2,1.7-3.3,2.7L37.1,177z M37.8,171.2l0.7-0.5l3.3,3.9l-0.6,0.5
				l-1.5-1.4l-0.5-0.6L37.8,171.2z"/>
			<path d="M46.6,186.1c-1.4-0.4-2.5-0.9-3.7-2c-2.7-2.5-2.8-6-0.2-8.8c2.5-2.7,6-2.9,8.9-0.3c1,0.9,1.7,1.9,2,3l-1.8,2l-0.9-0.9
				l1.5-2.4l0.7,1l-0.7,0.7c-0.1-1.2-0.6-2-1.3-2.7c-1.6-1.5-4.1-1.4-6.5,1.2c-2.4,2.6-2.4,5-0.7,6.6c0.6,0.6,1.3,0.9,2.2,1.1h-1.5
				l0.8-0.9c1-1,1.9-2.1,2.8-3.1l1.7,1.6c-1,1-1.9,2-2.9,3.1L46.6,186.1z M46.5,180.3l0.6-0.6l3.7,3.5l-0.6,0.6l-1.7-1.2L48,182
				L46.5,180.3z"/>
			<path d="M54.3,191.4c1.5,1.1,3,0.7,4.7-1.7l3.9-5.5l0.8,0.6l-4,5.7c-2.2,3.1-4.5,3.3-6.7,1.7c-2.2-1.5-2.9-3.7-0.9-6.5l1.1-1.6
				c1-1.5,2.1-3,3.1-4.5l2,1.4c-1.1,1.4-2.1,2.9-3.2,4.4l-0.8,1.1C52.6,189,52.9,190.4,54.3,191.4z M54.7,179.5l0.5-0.7l4.5,3.2
				l-0.5,0.7l-2.2-1.2l-0.4-0.3L54.7,179.5z M62.4,185.2l-1.5-1.3l0.5-0.7l3.5,2.5l-0.5,0.7l-1.7-0.9L62.4,185.2z"/>
			<path d="M60.4,195.9l1.8,0.6l0.4,0.2l1.8,1.2l-0.4,0.8l-4-2.1L60.4,195.9z M66.8,186.7l0.5,1.2l-5.1,9.9l-0.9-0.5L66.8,186.7z
				 M66.1,187l0.7,0.9l-1.7-1.1l0.4-0.8l3,1.6l1.8,11.7l-1.1,2.2l-0.9-0.5L66.1,187z M73.8,190.3l0.9,0.5l-5.5,10.7l-0.4-1.4
				L73.8,190.3z M72,189.4l4,2.1l-0.4,0.8l-1.7-0.6l-0.4-0.2l-1.9-1.3L72,189.4z"/>
			<path d="M75.7,202.8L78,204l-0.3,0.8l-5.1-2l0.3-0.8l2.4,0.6L75.7,202.8z M76.3,197.4c0.7-1.7,1.3-3.5,2-5.2l2.3,0.9
				c-0.7,1.7-1.4,3.4-2.1,5.2l-0.3,0.7c-0.7,1.7-1.3,3.5-2,5.2l-2.3-0.9c0.7-1.7,1.4-3.4,2.1-5.2L76.3,197.4z M76.6,192.5l0.3-0.8
				l5.1,2l-0.3,0.8l-2.4-0.7l-0.4-0.2L76.6,192.5z"/>
			<path d="M79.3,204.6l1.8,0.2l0.3,0.1l1.7,0.8l-0.2,0.8l-3.9-1.1L79.3,204.6z M87.4,195.3l1.4,0.4l0.8,12.7l-2.3-0.6l-0.5-10.7
				l0.6-0.3l-6.3,9.3l-0.9-0.3L87.4,195.3z M83.4,201.8l4.7,1.3l0.1,1l-5.3-1.5L83.4,201.8z M85.6,206.4l2.1,0.3l0.8,0.2l2.1,0.9
				l-0.2,0.8l-5-1.4L85.6,206.4z"/>
			<path d="M92.3,208.1h1.9l0.4,0.1l2.1,0.6l-0.1,0.8l-4.5-0.6L92.3,208.1z M95.4,197.3l0.9,1l-1.5,11l-1-0.1L95.4,197.3z
				 M94.8,197.8l1,0.6l-2-0.5l0.1-0.8l3.4,0.5l5.6,10.4l-0.3,2.4l-1-0.1L94.8,197.8z M101.2,198.1l4.5,0.6l-0.1,0.8h-1.8l-0.4-0.1
				l-2.2-0.6V198.1z M103.1,198.4l1,0.1l-1.6,11.9l-0.9-1.2L103.1,198.4z"/>
			<path d="M116.6,210c-1.3,0.7-2.5,1-4,1c-3.7-0.1-6.1-2.6-6-6.4c0.1-3.7,2.5-6.2,6.4-6.2c1.3,0,2.5,0.3,3.5,0.9v2.7h-1.2l-0.5-2.8
				l1.2,0.3v1c-0.9-0.8-1.8-1.2-2.7-1.2c-2.2,0-4,1.7-4.1,5.2s1.6,5.3,3.9,5.4c0.9,0,1.5-0.2,2.4-0.6l-1.1,1v-1.2c0-1.4,0-2.8,0-4.2
				h2.4c-0.1,1.4-0.1,2.8-0.1,4.2L116.6,210z M112.6,205.7v-0.8l5.1,0.1v0.8l-2,0.2h-0.8L112.6,205.7z"/>
			<path d="M122.1,199.1l-0.1-0.8l2.7-0.4l0.2,1.1h-0.2L122.1,199.1z M124.3,203.6c-0.3-1.8-0.6-3.7-0.9-5.5l2.4-0.4
				c0.2,1.8,0.5,3.6,0.8,5.5l0.2,1.1c0.3,1.6,0.5,3.4,0.9,5.2l-2.4,0.4c-0.2-1.8-0.5-3.6-0.8-5.5L124.3,203.6z M126.7,208.5l2.5-0.1
				l0.1,0.8l-5.5,0.9l-0.1-0.8l2.4-0.7L126.7,208.5z M127.6,204.8l-1.9,0.3l-0.1-0.9l2-0.3c1.9-0.3,2.5-1.6,2.2-3.2
				c-0.3-1.7-1.3-2.4-3.2-2.1l-1.9,0.3l-0.1-0.9l2.1-0.3c3.3-0.5,5.1,0.6,5.4,2.7C132.5,202.3,131.4,204.2,127.6,204.8z"/>
			<path d="M134.6,207.5l1.7-0.8l0.3-0.1l1.8-0.3l0.2,0.8l-3.8,1.1L134.6,207.5z M136.6,195.3l1.4-0.4l7.3,10.4L143,206l-6.1-8.9
				l0.4-0.6l-0.4,11.2L136,208L136.6,195.3z M136.7,202.9l4.7-1.4l0.6,0.8l-5.3,1.5V202.9z M140.9,205.7l2-0.9l0.8-0.2l2.3-0.4
				l0.2,0.8l-5,1.5L140.9,205.7z"/>
			<path d="M144.2,193.6h1.2l-2,0.6l-0.3-0.8l3.1-1.4l10.2,5.9l1,2.3l-1,0.4L144.2,193.6z M144.4,192.8l1.3,0.4l4.5,10.1l-0.9,0.4
				L144.4,192.8z M147.5,203.6l1.6-1l0.4-0.2l2.1-0.6l0.3,0.8l-4.2,1.8L147.5,203.6z M149.8,190.5l4.2-1.8l0.3,0.8l-1.5,1l-0.4,0.2
				l-2.2,0.7L149.8,190.5z M151.6,189.7l0.9-0.4l4.9,11l-1.4-0.5L151.6,189.7z"/>
			<path d="M155,188.9l-0.4-0.7l4.7-2.8l0.4,0.7l-2,1.5l-0.4,0.3L155,188.9z M155.9,187.4l2.1-1.3c0.9,1.6,1.9,3.2,2.8,4.8l0.6,0.9
				c0.8,1.3,1.8,2.9,2.8,4.5l-2.1,1.3c-0.9-1.6-1.9-3.2-2.7-4.6l-0.5-0.8C157.8,190.6,156.9,189,155.9,187.4z M162.5,196.1l0.6,1
				l-2.3,1.4l-0.4-0.7l2-1.5L162.5,196.1z M166.9,190.6l1.6,3.1L163,197l-0.5-0.8l5-3l-0.5,1.4l-1.2-3.3L166.9,190.6z"/>
			<path d="M163.7,183.7l-0.5-0.7l4.3-3.4l0.5,0.7l-1.8,1.8l-0.3,0.3L163.7,183.7z M175,187.5c1.4-1.1,1.5-2.6-0.3-5l-4.2-5.3
				l0.8-0.6l4.3,5.4c2.4,3,1.9,5.3-0.2,7c-2.1,1.6-4.4,1.7-6.5-1l-1.2-1.5c-1.1-1.4-2.3-2.9-3.4-4.3l1.9-1.5
				c1.1,1.4,2.2,2.9,3.4,4.3l0.9,1.1C172.2,188.4,173.6,188.6,175,187.5z M171.4,177.9l-1.7,1l-0.5-0.7l3.4-2.7l0.5,0.7l-1.4,1.4
				L171.4,177.9z"/>
			<path d="M174.1,174.9l1.1-0.5l-1.6,1.3l-0.6-0.6l2.4-2.4l11.7,1.6l1.8,1.7l-0.7,0.8L174.1,174.9z M174,174.2l1.3-0.2l8,7.7
				l-0.7,0.7L174,174.2z M178.1,169.9l3.1-3.3l0.6,0.6l-1.1,1.5l-0.3,0.3l-1.8,1.5L178.1,169.9z M179.5,168.5l0.7-0.7l8.7,8.3h-1.5
				L179.5,168.5z M181,182.9l1.1-1.6l0.3-0.3l1.7-1.4l0.6,0.6l-3.1,3.3L181,182.9z"/>
			<path d="M196.7,164.4c-0.2,1.4-0.6,2.6-1.5,3.9c-2.2,3-5.7,3.5-8.7,1.3s-3.6-5.6-1.3-8.8c0.8-1.1,1.7-1.9,2.8-2.4l2.2,1.5l-0.7,1
				l-2.6-1.2l0.9-0.8l0.8,0.6c-1.2,0.3-2,0.8-2.5,1.6c-1.3,1.8-0.9,4.3,1.9,6.3c2.8,2.1,5.3,1.8,6.7-0.1c0.5-0.7,0.7-1.4,0.9-2.4
				l0.2,1.5l-1-0.7c-1.1-0.8-2.3-1.6-3.4-2.4l1.4-1.9c1.1,0.9,2.2,1.7,3.4,2.6L196.7,164.4z M191,165.2l-0.7-0.5l3-4.1l0.7,0.5
				l-1,1.8l-0.5,0.6L191,165.2z"/>
			<path d="M199.6,155.9c-0.9-0.5-1.6-0.2-2.7,0.6l-0.6,0.5c-1.7,1.3-3.2,1.9-4.9,0.9c-1.8-1-2.1-3.2-0.9-5.4
				c0.6-1.1,1.5-1.9,2.4-2.3l2.1,1.3l-0.7,1.2l-2.6-0.9l1.1-0.9l0.8,0.4c-1.1,0.4-1.8,0.8-2.2,1.7c-0.6,1.1-0.5,2.2,0.5,2.8
				c0.9,0.5,1.7,0.2,2.7-0.6l0.7-0.5c2-1.5,3.3-1.9,4.9-1c1.8,1,2.2,3.2,0.9,5.6c-0.7,1.2-1.7,2.2-2.7,2.8l-2.2-1.4l0.7-1.2l2.7,1
				l-1,0.9l-0.8-0.4c1.2-0.6,1.8-1.1,2.4-2.1C200.8,157.6,200.6,156.4,199.6,155.9z"/>
			<path d="M202.8,140.7c3.7,1.6,4.7,4.9,3.6,7.6s-4.1,4.3-8,2.7c-3.7-1.6-4.7-5-3.6-7.6C196,140.8,199,139.1,202.8,140.7z
				 M205.5,147.9c0.8-2-1.1-3.8-3.7-4.9c-2.6-1.1-5.2-1.2-6.1,0.8c-0.8,2,1.1,3.8,3.7,4.9C202.1,149.8,204.7,149.9,205.5,147.9z"/>
			<path d="M198.4,137.8l-0.8-0.2l0.7-2.6l1.1,0.3l-0.1,0.2L198.4,137.8z M203.4,137.5c-1.8-0.5-3.6-1-5.4-1.4l0.6-2.4
				c1.7,0.5,3.5,1,5.4,1.5l0.6,0.2c1.9,0.5,3.7,1,5.5,1.4l-0.6,2.4c-1.7-0.5-3.5-1-5.5-1.5L203.4,137.5z M208.9,137.8l0.6-2.2
				c0.6-2.4-0.8-4.2-3.9-5c-3.2-0.9-5.2,0-5.8,2.3l-0.6,2.2l-0.9-0.2l0.7-2.5c0.9-3.5,3.7-5.2,7.3-4.2c3.7,1,5.1,4.1,4.1,7.7
				l-0.6,2.2L208.9,137.8z M208.8,137.8l1.1,0.3l-0.7,2.6l-0.8-0.2l0.4-2.5V137.8z"/>
		</g>
	</g>
	<g>
		<g>
			<path d="M15.8,100.1L15,100l0.5-2.7l1.1,0.2v0.2L15.8,100.1z M20.7,99.4c-1.8-0.3-3.7-0.6-5.5-0.9l0.4-2.4c1.8,0.4,3.6,0.7,5.6,1
				l0.5,0.1c1.9,0.3,3.8,0.7,5.6,0.9l-0.4,2.4c-1.8-0.4-3.6-0.7-5.5-1L20.7,99.4z M20.8,98.2l0.4-2.2c0.3-1.8-0.6-2.7-1.9-3
				c-1.5-0.3-2.3,0.4-2.6,2l-0.4,2.3l-0.9-0.2l0.5-2.7c0.5-2.8,1.9-4.1,3.8-3.8c1.4,0.2,2.6,1.6,2.3,4.4l-0.2-0.1
				c0.5-2,1.3-2.6,3.2-2.7l3-0.2l-0.8,0.9l0.6-2.2l0.8,0.1c0,0.6,0.1,1-0.1,1.7c-0.2,1.3-0.7,1.9-1.8,1.9l-2.6,0.1
				c-1.4,0-1.9,0.5-2.1,1.8l-0.3,1.9L20.8,98.2z M26.1,98.9l0.7-2.4l0.8,0.1l-0.9,5.3l-0.8-0.1l0.2-2.5L26.1,98.9z"/>
			<path d="M18.2,87.5l-0.8-0.2l0.8-2.6l1.1,0.3l-0.1,0.2L18.2,87.5z M23.1,87.4c-1.8-0.5-3.6-1.1-5.3-1.6l0.7-2.3
				c1.7,0.6,3.5,1.1,5.3,1.7l0.6,0.2c1.9,0.6,3.7,1.1,5.5,1.6l-0.7,2.3c-1.7-0.6-3.5-1.1-5.3-1.7L23.1,87.4z M19.5,80.2l1.2-0.7
				L19,85l-0.9-0.3l1.9-6.1l3,0.8l-0.4,1.2L19.5,80.2z M24.5,83l-1.7-0.8l0.3-0.9l3.9,1.2l-0.3,0.9l-1.9-0.3L24.5,83z M25.3,82.7
				l-1.2,3.8l-0.9-0.3l1.2-3.8L25.3,82.7z M28.5,87.8l1.1,0.3l-0.8,2.6L28,90.5l0.5-2.4V87.8z M28.6,80.7l3,1l-2,6.4l-0.9-0.3
				l1.8-5.8l0.6,1.3l-2.9-1.4L28.6,80.7z"/>
			<path d="M21.7,76.4l-0.8-0.3l1.1-2.5l1,0.5l0,0.2L21.7,76.4z M26.7,76.9c-1.7-0.8-3.4-1.5-5.1-2.2l1-2.2c1.6,0.8,3.4,1.5,5.1,2.3
				l1,0.4c1.5,0.7,3.1,1.4,4.8,2.1l-1,2.2c-1.6-0.8-3.4-1.5-5.1-2.3L26.7,76.9z M29.5,74.8l-0.8,1.7l-0.8-0.4l0.8-1.9
				c0.8-1.7,0.1-2.9-1.5-3.6s-2.8-0.2-3.5,1.5L22.9,74L22,73.6l0.9-2c1.4-3.1,3.3-3.9,5.2-3C30,69.4,31,71.4,29.5,74.8z M32.1,77.7
				l1.3-2.2l0.8,0.3l-2.3,5.1l-0.8-0.3l0.8-2.4L32.1,77.7z"/>
			<path d="M26.5,65.8l-0.7-0.4l2.9-4.7l0.7,0.4l-1.1,2.3L28,63.8L26.5,65.8z M38.4,65.4c1-1.6,0.5-3-2-4.6l-5.7-3.5l0.5-0.9
				l5.9,3.6c3.2,2,3.6,4.3,2.2,6.6c-1.4,2.2-3.5,3.1-6.4,1.3l-1.7-1c-1.5-0.9-3.1-1.9-4.7-2.8l1.3-2.1c1.5,1,3.1,1.9,4.7,2.9
				l1.2,0.7C36.1,67.3,37.5,66.9,38.4,65.4z M31.7,57.8l-1.2,1.5l-0.7-0.4l2.2-3.7l0.7,0.4l-0.8,1.7L31.7,57.8z"/>
			<path d="M34,53.9l-0.7-0.5l1.7-2.1l0.9,0.7l-0.1,0.2L34,53.9z M38.7,55.7c-1.4-1.2-2.9-2.4-4.4-3.5l1.5-1.9
				c1.4,1.2,2.8,2.4,4.3,3.6l0.4,0.3c1.6,1.3,3,2.5,4.5,3.6l-1.5,1.9c-1.4-1.2-2.8-2.4-4.3-3.6L38.7,55.7z M39.2,54.6l1.2-1.5
				c1.2-1.4,1.1-2.5-0.1-3.5c-1.2-0.9-2.1-0.7-3.2,0.6l-1.3,1.7l-0.7-0.6l1.8-2.2c1.7-2.1,3.5-2.4,4.8-1.3c1.1,0.9,1.4,2.3,0,4.6
				l-0.1-0.1c2.1-2.2,3.7-2.4,5-1.3c1.2,1,1.8,3-0.7,6.1l-1.5,1.8l-0.7-0.6l1.3-1.6c1.3-1.5,1.3-2.9,0.1-3.9c-1.3-1-2.5-0.8-3.9,0.9
				L40,55.2L39.2,54.6z M43.5,58.1l0.9,0.7l-1.7,2.1L42,60.4l1.4-2.1L43.5,58.1z"/>
			<path d="M41.9,44.4l-0.6-0.6l4-3.8l0.6,0.6l-1.6,1.9l-0.4,0.4L41.9,44.4z M42.4,42.8l1.8-1.7c1.2,1.4,2.5,2.7,3.8,4.1l0.8,0.8
				c1.1,1.1,2.4,2.5,3.7,3.7l-1.8,1.7c-1.2-1.4-2.5-2.7-3.7-3.9l-0.7-0.7C45,45.4,43.7,44.1,42.4,42.8z M50.8,49.7l0.8,0.8l-2,1.9
				L49,51.8l1.6-1.9L50.8,49.7z M53.9,43.5l2.3,2.6l-4.6,4.5l-0.7-0.7l4.2-4l-0.2,1.5l-1.9-3L53.9,43.5z"/>
			<path d="M50.2,36.8l-0.5-0.7l4.2-3.4l0.5,0.7l-1.8,1.8l-0.3,0.3L50.2,36.8z M54.3,39.5c-1.2-1.5-2.3-2.9-3.5-4.3l1.9-1.5
				c1.1,1.5,2.3,2.9,3.4,4.4l0.5,0.6c1.2,1.5,2.3,2.9,3.5,4.3l-1.9,1.5c-1.1-1.5-2.3-2.9-3.4-4.4L54.3,39.5z M58.7,42.8l2.1-1.3
				l0.5,0.7l-4.2,3.4l-0.5-0.7l1.8-1.8L58.7,42.8z"/>
			<path d="M69,34.9l0.5,0.8l-0.8,0.8l-1-2.6l1-0.7l1.4,2.3c-0.6,1-1.5,2-2.6,2.8c-3,1.9-6.4,1.4-8.6-1.9c-2.1-3.3-1.1-6.8,1.8-8.6
				c1-0.6,2.1-1.1,3.4-1.2l1.5,2.2l-1,0.7l-1.9-2l1.1-0.4l0.6,0.9c-1.3-0.2-2.2,0-2.9,0.4C59.6,29.5,59,32,61,35
				c1.9,3,4.3,3.5,6.1,2.3C67.9,36.8,68.6,36,69,34.9z"/>
			<path d="M82.5,23.9c1.6,3.7-0.1,6.8-2.7,8c-2.7,1.1-6,0.2-7.6-3.6c-1.6-3.7,0.1-6.8,2.7-8C77.6,19.2,80.9,20.1,82.5,23.9z
				 M79.4,31c2-0.8,1.9-3.4,0.8-6.1c-1.1-2.6-2.9-4.5-4.9-3.7s-1.9,3.5-0.8,6.1S77.4,31.8,79.4,31z"/>
			<path d="M82.7,18.5l-0.2-0.8l2.6-0.7l0.3,1.1l-0.2,0.1L82.7,18.5z M85.5,22.7c-0.5-1.8-1-3.6-1.5-5.4l2.4-0.7
				c0.4,1.8,0.9,3.6,1.4,5.4l0.2,0.6c0.5,1.9,1,3.7,1.6,5.5l-2.4,0.7c-0.4-1.8-0.9-3.6-1.4-5.4L85.5,22.7z M89.7,15.7l1.3,0.6
				l-5.6,1.5L85.1,17l6.2-1.7l1,3l-1.2,0.3L89.7,15.7z M88.4,27.3l2.5-0.4l0.2,0.8l-5.4,1.5l-0.2-0.8l2.3-0.9L88.4,27.3z M90.8,21.9
				l-4,1.1l-0.3-0.9l4-1.1L90.8,21.9z M90,21.4l-0.2-1.8l0.9-0.2l1.1,4.1l-0.9,0.2l-0.8-1.8L90,21.4z"/>
			<path d="M98.2,14.9l1-1.1L99,17.2l-1.3,0.1L97.5,14l10.1-1.1l0.5,3.2l-1.2,0.1L106,13l1.2,0.8L98.2,14.9z M104,24.2h2.6l0.1,0.8
				l-5.8,0.6l-0.1-0.8l2.5-0.5L104,24.2z M102,19.2c-0.2-1.8-0.4-3.7-0.7-5.5l2.4-0.3c0.1,1.8,0.3,3.7,0.5,5.6l0.1,0.8
				c0.2,1.8,0.4,3.7,0.7,5.5l-2.4,0.3c-0.1-1.8-0.3-3.7-0.5-5.6L102,19.2z"/>
			<path d="M112.4,23.7l2.5,0.3v0.8l-5.4-0.1v-0.8l2.4-0.2L112.4,23.7z M109.8,13.6v-0.8l5.4,0.1v0.8l-2.5,0.2h-0.4L109.8,13.6z
				 M111.2,18.4c0.1-1.9,0.1-3.7,0.1-5.6l2.4,0.1c-0.1,1.8-0.2,3.7-0.2,5.6V19c-0.1,2.1-0.1,4-0.1,5.8l-2.4-0.1
				c0.1-1.8,0.2-3.7,0.2-5.6V18.4z M112.3,19.1v-0.9l7.2,0.2v0.9L112.3,19.1z M119.6,23.9l2.5,0.3V25l-5.4-0.1v-0.8l2.5-0.2
				L119.6,23.9z M117,13.8V13l5.4,0.1v0.8l-2.5,0.2h-0.4L117,13.8z M118.4,18.6c0-1.9,0.1-3.7,0.1-5.6l2.4,0.1
				c-0.1,1.8-0.2,3.7-0.2,5.6v0.8c-0.1,1.9-0.1,3.7-0.1,5.6l-2.4-0.1c0.1-1.8,0.2-3.7,0.2-5.8V18.6z"/>
			<path d="M125.7,24.6l-0.2,1.1l-2.7-0.4l0.1-0.8l2.5,0.1L125.7,24.6z M125.4,19.2c0.3-1.8,0.6-3.7,0.8-5.5l2.4,0.4
				c-0.3,1.8-0.6,3.6-1,5.5l-0.1,0.6c-0.3,2-0.6,3.8-0.9,5.7l-2.4-0.4c0.3-1.8,0.6-3.6,1-5.5L125.4,19.2z M124.7,14.3l0.1-0.8
				l2.7,0.4l-0.2,1.1h-0.2L124.7,14.3z M132.8,23.7l-0.6,3.1l-6.6-1.1l0.2-0.9l6,1l-1.2,0.8l1-3L132.8,23.7z M130.4,20.7l-4-0.6
				l0.2-0.9l4,0.6L130.4,20.7z M132.1,14.6l0.9,1.1l-5.7-0.9l0.2-0.9l6.3,1l-0.4,3.1l-1.2-0.2L132.1,14.6z M130,20l0.6-1.7l0.9,0.1
				l-0.7,4l-0.9-0.1v-1.9L130,20z"/>
			<path d="M140,27.8l2.3,1l-0.3,0.8l-5.3-1.8L137,27l2.4,0.5L140,27.8z M140.2,22.4c0.6-1.8,1.2-3.5,1.7-5.3l2.3,0.8
				c-0.6,1.7-1.2,3.5-1.8,5.3l-0.4,1c-0.5,1.6-1.1,3.2-1.6,5l-2.3-0.8c0.6-1.7,1.2-3.5,1.8-5.3L140.2,22.4z M140.3,17.4l0.3-0.8
				l2.6,0.9l-0.4,1.1l-0.2-0.1L140.3,17.4z M142.6,25l-1.8-0.6l0.3-0.9l1.9,0.7c1.8,0.6,2.9-0.2,3.5-1.8c0.5-1.6,0-2.8-1.8-3.4
				l-1.9-0.6l0.3-0.9l2,0.7c3.2,1.1,4.2,2.9,3.5,4.9C148,25,146.2,26.2,142.6,25z"/>
			<path d="M149.5,31.4l2.1,1.4l-0.4,0.8l-4.8-2.4l0.4-0.8l2.3,0.8L149.5,31.4z M150.7,26.1c0.8-1.7,1.7-3.3,2.4-5l2.2,1.1
				c-0.9,1.6-1.7,3.3-2.5,5l-0.2,0.5c-0.9,1.9-1.8,3.5-2.5,5.2l-2.2-1.1c0.9-1.6,1.7-3.3,2.5-5L150.7,26.1z M151.4,27.3l0.4-0.8
				l6.4,3.2l-0.4,0.8L151.4,27.3z M151.4,21.2l0.4-0.8l4.8,2.4l-0.4,0.8l-2.3-0.9l-0.4-0.2L151.4,21.2z M156,34.6l2.1,1.3l-0.4,0.8
				l-4.8-2.4l0.4-0.8l2.3,0.9L156,34.6z M157.1,29.3c0.8-1.7,1.7-3.3,2.4-5l2.2,1.1c-0.9,1.6-1.7,3.3-2.5,5l-0.3,0.7
				c-0.8,1.7-1.7,3.3-2.4,5l-2.2-1.1c0.9-1.6,1.7-3.3,2.6-5.2L157.1,29.3z M157.9,24.4l0.4-0.8l4.8,2.4l-0.4,0.8l-2.3-0.9l-0.4-0.2
				L157.9,24.4z"/>
			<path d="M161.5,38l2,1.6l-0.5,0.7l-4.6-3l0.5-0.7l2.2,1.1L161.5,38z M163.2,32.9c1-1.6,2-3.1,3-4.7l2,1.3c-1,1.5-2.1,3.1-3.1,4.6
				l-0.4,0.6c-1,1.6-2,3.1-3,4.7l-2-1.3c1-1.5,2.1-3.1,3.1-4.6L163.2,32.9z M164.5,28.1l0.5-0.7l4.6,3L169,31l-2.2-1.1l-0.4-0.2
				L164.5,28.1z"/>
			<path d="M166.7,41.6l-0.7,0.9l-2.1-1.7l0.5-0.7l2.1,1.3L166.7,41.6z M172.4,32.4l1.9,1.5c-1.2,1.4-2.3,2.9-3.5,4.3l-0.7,0.9
				c-1,1.2-2.1,2.7-3.2,4.2l-1.9-1.5c1.2-1.4,2.3-2.9,3.4-4.2l0.6-0.8C170.2,35.3,171.3,33.9,172.4,32.4z M173.3,43.9l-2.3,2.6l-5-4
				l0.6-0.8l4.5,3.6h-1.5l2.7-2.3L173.3,43.9z M170.7,32.1l0.5-0.7l4.3,3.4l-0.5,0.7l-2.1-1.3l-0.4-0.3L170.7,32.1z"/>
			<path d="M174.6,48.5l1.6,1.9l-0.6,0.6l-3.9-3.8l0.6-0.6l2,1.5L174.6,48.5z M177.3,43.7c1.3-1.3,2.6-2.7,3.8-4.1l1.8,1.7
				c-1.3,1.3-2.6,2.6-3.9,4l-0.5,0.6c-1.3,1.3-2.6,2.7-3.8,4.1l-1.8-1.7c1.3-1.3,2.6-2.6,3.9-4L177.3,43.7z M179.4,39.3l0.6-0.6
				l3.9,3.8l-0.6,0.6l-2-1.5l-0.3-0.3L179.4,39.3z"/>
			<path d="M179.2,53.3l1.4,2.1L180,56l-3.6-4.2l0.6-0.6l1.8,1.7L179.2,53.3z M182.2,48.7c1.4-1.2,2.8-2.4,4.2-3.7l1.6,1.9
				c-1.4,1.1-2.8,2.4-4.3,3.6l-0.8,0.7c-1.3,1.1-2.6,2.2-4,3.5l-1.6-1.9c1.4-1.1,2.8-2.4,4.3-3.6L182.2,48.7z M182.9,52.1l-1.2-1.4
				l0.7-0.6l1.3,1.6c1.2,1.4,2.6,1.3,3.9,0.2c1.3-1.1,1.4-2.4,0.2-3.8l-1.3-1.5l0.7-0.6l1.4,1.6c2.2,2.6,2.1,4.6,0.5,6
				C187.6,54.9,185.4,55,182.9,52.1z M184.8,44.4l0.6-0.6l1.8,2.1l-0.8,0.7l-0.2-0.2L184.8,44.4z"/>
			<path d="M185.7,61.4l1.2,2.2l-0.7,0.5l-3.1-4.6l0.7-0.5l1.6,1.9L185.7,61.4z M189.2,57.2c1.5-1,3.1-2.1,4.6-3.2l1.4,2
				c-1.5,1-3.1,2-4.7,3.1l-0.9,0.6c-1.4,0.9-2.8,1.9-4.3,3l-1.4-2c1.5-1,3.1-2,4.7-3.1L189.2,57.2z M189.5,60.7l-1.1-1.6l0.8-0.5
				l1.1,1.7c1.1,1.6,2.5,1.6,3.9,0.7c1.4-0.9,1.7-2.2,0.6-3.8l-1.1-1.6l0.8-0.5l1.2,1.8c1.9,2.8,1.5,4.9-0.2,6
				C193.8,64.1,191.6,63.9,189.5,60.7z M192.3,53.3l0.7-0.5l1.5,2.3l-0.9,0.6l-0.1-0.2L192.3,53.3z"/>
			<path d="M191.1,70.3l1,2.3l-0.7,0.4l-2.6-4.8l0.7-0.4l1.4,2.1L191.1,70.3z M195.1,66.5c1.6-0.9,3.3-1.8,4.9-2.7l1.2,2.1
				c-1.6,0.8-3.3,1.7-4.9,2.6l-0.7,0.4c-1.6,0.9-3.3,1.8-4.9,2.7l-1.2-2.1c1.6-0.8,3.3-1.7,4.9-2.6L195.1,66.5z M198.5,62.9l0.7-0.4
				l2.6,4.8l-0.7,0.4l-1.4-2.1l-0.2-0.4L198.5,62.9z"/>
			<path d="M192.6,73.3l1,1.7l0.2,0.4l0.6,2.1l-0.8,0.3l-1.7-4.2L192.6,73.3z M203.5,70.6l-0.4,1.3L192.8,76l-0.4-1L203.5,70.6z
				 M202.7,70.4v1.2l-0.6-2l0.8-0.3l1.3,3.1l-6.2,10l-2.3,0.9l-0.4-1L202.7,70.4z M206.4,77.9l0.4,1l-11.1,4.5l0.6-1.3L206.4,77.9z
				 M205.7,76l1.7,4.2l-0.8,0.3l-0.9-1.6l-0.2-0.4l-0.6-2.2L205.7,76z"/>
			<path d="M198.2,87.8l-1.1,0.3l-0.7-2.6l0.8-0.2l0.9,2.3L198.2,87.8z M203,85.4c1.8-0.5,3.6-0.9,5.4-1.5l0.6,2.4
				c-1.8,0.4-3.6,0.9-5.4,1.3l-0.6,0.2c-1.9,0.5-3.7,1-5.5,1.5l-0.6-2.4c1.8-0.4,3.6-0.9,5.4-1.3L203,85.4z M201.9,93.9l-3.1,0.7
				l-1.7-6.5l0.9-0.2l1.5,5.9l-1.2-0.8l3.2-0.3L201.9,93.9z M204.2,89.8l1.8-0.2l0.2,0.9l-3.9,1l-0.2-0.9l1.8-0.7L204.2,89.8z
				 M203.6,90.6l-1-3.9l0.9-0.2l1,3.9L203.6,90.6z M209.9,89.6l-0.7,1.3l-1.4-5.6l0.9-0.2l1.6,6.2l-3,0.9L207,91L209.9,89.6z
				 M207.2,82.7l0.8-0.2l0.7,2.6l-1.1,0.3l-0.1-0.2L207.2,82.7z"/>
			<path d="M202.4,101.1c1-0.1,1.4-0.8,1.8-2.2l0.2-0.8c0.6-2.1,1.4-3.5,3.3-3.7c2.1-0.3,3.6,1.2,4,3.7c0.2,1.2,0,2.4-0.5,3.3
				l-2.4,0.2l-0.2-1.4l2.6-0.9l-0.4,1.4l-0.9,0.1c0.6-1,0.9-1.7,0.7-2.7c-0.2-1.2-1-2-2.1-1.9c-1,0.1-1.5,0.9-1.8,2.1l-0.2,0.8
				c-0.6,2.5-1.5,3.5-3.3,3.8c-2.1,0.3-3.7-1.2-4.1-3.9c-0.2-1.3,0-2.8,0.4-3.8l2.6-0.3l0.2,1.4l-2.8,0.9l0.3-1.3l0.9-0.1
				c-0.5,1.2-0.8,1.9-0.6,3.1C200.4,100.5,201.3,101.3,202.4,101.1z"/>
		</g>
	</g>
	<path class="st16" d="M178.9,89.9c-1.2-1.6-4.4-0.9-4.7-0.9c-0.5,0.1-2.1,0.5-2.1,0.5l0,0l-0.1,1.2l0.6,0.3
		c0.7-0.1,1.6,0.8,1.6,0.8c0,0.2-1.4,0.4-2,0.4c-1.5,0.2-2.2,0.2-2.6,0c-1-0.6-0.7-1.7-1.6-2c-0.7-0.2-1.4,0.2-1.9,0.7
		c-0.1,0.1-0.6,0.7-0.4,1.1c0.1,0.4,0.6,0.4,1.6,0.7c0.5,0.1,2,0.6,2,1s-1.3,0.2-2.2,1.1c-0.6,0.6-0.8,1.7-0.5,2s1.9,0.2,1.9,0.2
		s0,0,0.1-0.1s0.7-1.2,1.2-0.9c0.3,0.2-0.2,1,0.2,2c0.3,0.6,0.9,1,1.2,1.1c1,0.5,1.8,0.3,1.9,0.5c0.1,0.3-1.5,0.4-1.9,1.3
		c-0.3,0.9,0.9,1.7,0.4,2.6c-0.1,0.2-0.2,0.2-0.8,1c-0.5,0.7-0.6,0.9-0.5,1c0,0.5,0.9,1.1,1.5,1c0.5-0.1,0.9-0.5,1.5-1.3
		c0.1-0.1,0.1-0.1,0.5-0.7c0.8-1.1,1-1.3,1.1-1.4s0.9-0.8,1.3-0.5c0.3,0.2,0.3,1,0,1.6c-0.6,1.2-2.1,1.1-2.2,2c0,0.4,0.3,0.8,0.5,1
		c0.6,0.4,1.5-0.1,2-0.3c1.1-0.6,2.6-2,2.5-3.6c0-1-0.6-1.5-0.2-2.1c0.3-0.5,0.9-0.2,1.4-0.8c0.9-0.9,0.7-3,0.7-3l0,0
		c0,0,0.8-1.2,1.3-1.1c0.6,0.1,0.6,1.5,1.1,1.5c0.3,0,0.7-0.6,0.8-1.1c0.2-1.1-0.6-2.4-1.6-2.6c-1.5-0.3-3.4,1.6-3.6,3.4
		c-0.1,0.5,0.1,0.9-0.2,1.2c-0.5,0.5-1.8,0-2.6-0.7c-0.2-0.2-1.3-1-1.1-1.8c0.2-0.7,1.5-0.4,2.6-1.2C179.2,94.1,180,91.3,178.9,89.9
		z"/>
	<path class="st16" d="M54.8,104.7c0.2-0.1,0.3,0,0.7,0.2c0.9,0.3,1.2-0.2,2.2,0.1c0.2,0.1,0.4,0.1,0.6,0.1c0.2-0.1,0.5-0.3,0.6-0.6
		c0.1-0.6-0.8-0.8-1.2-1.8c0-0.1-0.2-0.8,0.1-1.3s1-0.4,1.7-0.7c1.7-0.7,2.5-3.5,2.4-5.4c0-1.4-0.4-1.3-0.3-2.1
		c0.3-1.7,2.1-2.1,3.2-4.6c0.4-0.8,0.4-1.1,0.2-1.3c-0.3-0.4-1.4,0-2.4,0.4c-1.9,0.7-3.2,1.7-3.8,2.2c-1,0.8-1.6,1.2-1.9,2
		c-0.3,0.6-0.7,1.4-0.7,2.4c0,0.2,0,0.7-0.2,1.3c0,0.1-0.3,0.6-0.4,0.5c-0.2,0,0.2-1.3-0.2-2.7c-0.1-0.3-0.4-1.5-1.5-2.1
		C53.4,91,52.7,91,51.4,91c-0.9,0-1.2,0-1.3,0.2s0.2,0.4,0.4,0.9c0.2,0.3,0.2,0.5,0.4,1.9c0.3,1.8,0.3,1.9,0.2,2.1
		c-0.4,0.7-1.5,1-1.8,0.7s0.5-1.1,0.7-2.2c0.5-3.6-6.2-6.6-7.2-7c-0.4-0.1-0.8-0.3-1-0.1c-0.3,0.3-0.2,0.9-0.1,1.4
		c0.4,1.6,1,2.5,1.8,4.1c0.7,1.3,1,2.1,1.3,3.3c0.3,1.6-0.1,1.6,0.2,2.4c0.5,1.1,1.9,2.7,3.5,3.2c0.2,0.1,0.5,0.1,0.5,0.3
		c0.1,0.6-2.3,1.3-2.1,1.8c0.1,0.4,2.6,0.6,3.7,0.4c0.1,0,0.3-0.1,0.5,0c0.5,0.2,0.4,0.7,0.8,1.1c0.6,0.6,2,0.6,2.5,0
		C54.7,105.4,54.5,104.9,54.8,104.7z"/>
	<path d="M-189.6,37.5"/>
</g>
</svg>
